<svg xmlns="http://www.w3.org/2000/svg" width="16.368" height="17.536" viewBox="0 0 16.368 17.536">
  <g id="Group_84" data-name="Group 84" transform="translate(-7.996 95)">
    <path id="Path_214" data-name="Path 214" d="M23.2-47a1.168,1.168,0,0,0-1.169,1.169v4.677H10.334v-4.677A1.168,1.168,0,0,0,9.165-47,1.168,1.168,0,0,0,8-45.835v5.846A1.168,1.168,0,0,0,9.165-38.82H23.194a1.168,1.168,0,0,0,1.169-1.169v-5.846A1.168,1.168,0,0,0,23.2-47Z" transform="translate(0 -38.645)" fill="#e2001a"/>
    <path id="Path_215" data-name="Path 215" d="M25.016-82.484a1.166,1.166,0,0,0,.382.254,1.17,1.17,0,0,0,.893,0,1.17,1.17,0,0,0,.382-.254l4.675-4.675a1.169,1.169,0,0,0,0-1.653,1.169,1.169,0,0,0-1.653,0l-2.681,2.681v-7.7A1.168,1.168,0,0,0,25.844-95a1.168,1.168,0,0,0-1.169,1.169v7.7l-2.681-2.681a1.165,1.165,0,0,0-.827-.342,1.165,1.165,0,0,0-.827.342,1.169,1.169,0,0,0,0,1.653Z" transform="translate(-9.664 0)" fill="#e2001a"/>
  </g>
</svg>
