<svg xmlns="http://www.w3.org/2000/svg" width="16.814" height="16.814" viewBox="0 0 16.814 16.814">
  <g id="Group_100" data-name="Group 100" transform="translate(0 100)">
    <path id="Path_225" data-name="Path 225" d="M8.407-100A8.407,8.407,0,0,0,0-91.593a8.407,8.407,0,0,0,8.407,8.407,8.407,8.407,0,0,0,8.407-8.407A8.407,8.407,0,0,0,8.407-100Zm0,14.712A6.312,6.312,0,0,1,2.1-91.593,6.312,6.312,0,0,1,8.407-97.9a6.312,6.312,0,0,1,6.305,6.305A6.312,6.312,0,0,1,8.407-85.288Z" fill="#fff"/>
    <path id="Path_226" data-name="Path 226" d="M43.75-70.8h2.1V-75h-2.1Z" transform="translate(-36.394 -20.796)" fill="#fff"/>
    <path id="Path_227" data-name="Path 227" d="M45.852-36.449A1.051,1.051,0,0,1,44.8-35.4a1.051,1.051,0,0,1-1.051-1.051A1.051,1.051,0,0,1,44.8-37.5a1.051,1.051,0,0,1,1.051,1.051" transform="translate(-36.394 -51.991)" fill="#fff"/>
  </g>
</svg>
