<svg xmlns="http://www.w3.org/2000/svg" width="41.002" height="41.001" viewBox="0 0 41.002 41.001">
  <g id="Group_65" data-name="Group 65" transform="translate(0 99.999)">
    <path id="Path_136" data-name="Path 136" d="M11.157-63.188H18.2a2.57,2.57,0,0,0,2.563-2.563v-5.125A2.57,2.57,0,0,0,18.2-73.438H11.157a2.57,2.57,0,0,0-2.563,2.563v5.125A2.57,2.57,0,0,0,11.157-63.188Z" transform="translate(-5.071 -15.671)" fill="#e2001a"/>
    <path id="Path_137" data-name="Path 137" d="M43.609-72.156H57.062A.64.64,0,0,0,57.7-72.8a.64.64,0,0,0-.641-.641H43.609a.64.64,0,0,0-.641.641A.64.64,0,0,0,43.609-72.156Z" transform="translate(-25.351 -15.671)" fill="#354253"/>
    <path id="Path_138" data-name="Path 138" d="M43.609-65.906H57.062a.64.64,0,0,0,.641-.641.64.64,0,0,0-.641-.641H43.609a.64.64,0,0,0-.641.641A.64.64,0,0,0,43.609-65.906Z" transform="translate(-25.351 -19.359)" fill="#354253"/>
    <path id="Path_139" data-name="Path 139" d="M43.609-59.656H57.062A.64.64,0,0,0,57.7-60.3a.64.64,0,0,0-.641-.641H43.609a.64.64,0,0,0-.641.641A.64.64,0,0,0,43.609-59.656Z" transform="translate(-25.351 -23.046)" fill="#354253"/>
    <path id="Path_140" data-name="Path 140" d="M49.736-53.406a.64.64,0,0,0,.641-.641.64.64,0,0,0-.641-.641H43.61a.64.64,0,0,0-.641.641.64.64,0,0,0,.641.641Z" transform="translate(-25.352 -26.734)" fill="#354253"/>
    <path id="Path_141" data-name="Path 141" d="M21.907-45.312H8.454a.64.64,0,0,0-.641.641.64.64,0,0,0,.641.641H21.907a.64.64,0,0,0,.641-.641A.64.64,0,0,0,21.907-45.312Z" transform="translate(-4.61 -32.265)" fill="#354253"/>
    <path id="Path_142" data-name="Path 142" d="M21.907-39.062H8.454a.64.64,0,0,0-.641.641.64.64,0,0,0,.641.641H21.907a.64.64,0,0,0,.641-.641A.64.64,0,0,0,21.907-39.062Z" transform="translate(-4.61 -35.952)" fill="#354253"/>
    <path id="Path_143" data-name="Path 143" d="M21.907-32.812H8.454a.64.64,0,0,0-.641.641.64.64,0,0,0,.641.641H21.907a.64.64,0,0,0,.641-.641A.64.64,0,0,0,21.907-32.812Z" transform="translate(-4.61 -39.64)" fill="#354253"/>
    <path id="Path_144" data-name="Path 144" d="M62.116-41.406c-1.012,0-1.453.886-1,2.329l3.54,10.29c.312.988.8,1.489,1.316,1.489.466,0,.961-.4,1.387-1.211l.8-1.811L72.7-25.446a3.038,3.038,0,0,0,2.178,1.017,2.044,2.044,0,0,0,1.448-.564,2.7,2.7,0,0,0-.266-3.722l-4.614-4.95,1.717-.77c1.646-.884,1.589-2.183-.13-2.9l-9.875-3.823a2.758,2.758,0,0,0-1.046-.243Z" transform="translate(-35.954 -34.57)" fill="#e2001a"/>
    <path id="Path_145" data-name="Path 145" d="M2.562-65.405H26.644l-.44-1.281H2.562a1.283,1.283,0,0,1-1.281-1.281V-94.234H34.594v19.988l1.281.5V-97.437A2.57,2.57,0,0,0,33.313-100H2.562A2.57,2.57,0,0,0,0-97.437v29.469A2.57,2.57,0,0,0,2.562-65.4ZM31.391-98.078a.962.962,0,0,1,.961.961.962.962,0,0,1-.961.961.962.962,0,0,1-.961-.961A.962.962,0,0,1,31.391-98.078Zm-3.524,0a.962.962,0,0,1,.961.961.962.962,0,0,1-.961.961.962.962,0,0,1-.961-.961A.962.962,0,0,1,27.867-98.078Z" transform="translate(0)" fill="#354253"/>
  </g>
</svg>
