<svg xmlns="http://www.w3.org/2000/svg" width="17.345" height="12.008" viewBox="0 0 17.345 12.008">
  <g id="Group_78" data-name="Group 78" transform="translate(-11 77)">
    <path id="Path_202" data-name="Path 202" d="M12.334-77a1.33,1.33,0,0,0-.5.1l7.373,6.817a.589.589,0,0,0,.917,0L27.511-76.9a1.33,1.33,0,0,0-.5-.1Zm-1.32,1.154a1.37,1.37,0,0,0-.014.181v9.34a1.331,1.331,0,0,0,1.334,1.334H27.011a1.331,1.331,0,0,0,1.334-1.334v-9.34a1.37,1.37,0,0,0-.014-.181l-7.3,6.741a2.033,2.033,0,0,1-2.738,0Z" fill="#354253"/>
  </g>
</svg>
