<svg xmlns="http://www.w3.org/2000/svg" width="210.139" height="56.096" viewBox="0 0 210.139 56.096">
  <g id="Component_1_18" data-name="Component 1 – 18" transform="translate(1.25 0.226)">
    <path id="Path_20" data-name="Path 20" d="M66.985,97.333C80.8,94.181,90.186,78.4,90.2,69.435c.013-10.88.008-25.665.008-25.665H43.771s0,14.694,0,25.7c0,9.045,9.434,24.685,23.214,27.859" transform="translate(-43.77 -42.745)" fill="#fff"/>
    <path id="Path_21" data-name="Path 21" d="M66.985,97.333C80.8,94.181,90.186,78.4,90.2,69.435c.013-10.88.008-25.665.008-25.665H43.771s0,14.694,0,25.7C43.773,78.519,53.2,94.159,66.985,97.333Z" transform="translate(-43.77 -42.745)" fill="none" stroke="#e2001a" stroke-width="2.501"/>
    <path id="Path_22" data-name="Path 22" d="M67.7,95.243c12.315-2.81,20.688-16.879,20.7-24.877.014-9.7.007-22.884.007-22.884H47s0,13.1,0,22.92c0,8.065,8.411,22.01,20.7,24.842" transform="translate(-44.479 -43.557)" fill="#e2001a"/>
    <path id="Path_23" data-name="Path 23" d="M71.656,75.547,65.05,91.677l6.568-5.444,6.55,5.444Z" transform="translate(-48.453 -49.69)" fill="#fff"/>
    <path id="Path_24" data-name="Path 24" d="M71.683,71.086l6.607-16.131L71.723,60.4,65.17,54.955Z" transform="translate(-48.48 -45.19)" fill="#fff"/>
    <path id="Path_25" data-name="Path 25" d="M73.539,73.737l16.1,6.621L84.2,73.776l5.433-6.564Z" transform="translate(-50.322 -47.868)" fill="#fff"/>
    <path id="Path_26" data-name="Path 26" d="M68.976,73.732l-16.1-6.62,5.434,6.581-5.434,6.564Z" transform="translate(-45.774 -47.847)" fill="#fff"/>
    <g id="Group_33" data-name="Group 33" transform="translate(53.369)">
      <g id="Group_33-2" data-name="Group 33">
        <path id="Path_52" data-name="Path 52" d="M88.6,65.19h5.3v1.071H89.874v3.285H93.6V70.6H89.874v4.472H88.6Z" transform="translate(-88.603 -65.029)" fill="#fff"/>
        <path id="Path_53" data-name="Path 53" d="M102.851,70.073c0,3.4-2.06,5.208-4.574,5.208-2.6,0-4.428-2.024-4.428-5.017,0-3.138,1.944-5.191,4.574-5.191C101.112,65.072,102.851,67.14,102.851,70.073Zm-7.642.162c0,2.112,1.139,4,3.142,4s3.157-1.862,3.157-4.106c0-1.966-1.023-4.019-3.142-4.019S95.208,68.064,95.208,70.235Z" transform="translate(-86.733 -65.072)" fill="#fff"/>
        <path id="Path_54" data-name="Path 54" d="M102.132,75.075V65.19h1.388l3.157,5a28.034,28.034,0,0,1,1.769,3.212l.028-.015c-.117-1.319-.146-2.523-.146-4.061V65.19h1.2v9.885H108.24l-3.128-5.016a31.478,31.478,0,0,1-1.841-3.3l-.045.015c.075,1.247.1,2.434.1,4.078v4.223Z" transform="translate(-83.78 -65.029)" fill="#fff"/>
        <path id="Path_55" data-name="Path 55" d="M109.65,65.341a18.2,18.2,0,0,1,2.7-.2,5.622,5.622,0,0,1,3.989,1.232,4.559,4.559,0,0,1,1.388,3.548,5.239,5.239,0,0,1-1.418,3.843,6.052,6.052,0,0,1-4.353,1.423,20.756,20.756,0,0,1-2.31-.117Zm1.271,8.742a8.031,8.031,0,0,0,1.287.074c2.717,0,4.193-1.525,4.193-4.195.015-2.332-1.3-3.813-3.988-3.813a7.2,7.2,0,0,0-1.492.132Z" transform="translate(-81.1 -65.049)" fill="#fff"/>
        <path id="Path_56" data-name="Path 56" d="M119.033,71.966l-1.023,3.11h-1.316l3.346-9.885h1.534l3.361,9.885h-1.359l-1.053-3.11Zm3.228-1-.964-2.845c-.218-.645-.365-1.232-.511-1.8h-.028c-.146.587-.307,1.189-.5,1.789l-.964,2.86Z" transform="translate(-78.589 -65.029)" fill="#fff"/>
        <path id="Path_57" data-name="Path 57" d="M125.582,66.275h-3V65.19h7.292v1.085h-3.01v8.8h-1.286Z" transform="translate(-76.489 -65.029)" fill="#fff"/>
        <path id="Path_58" data-name="Path 58" d="M130.471,65.19v9.885H129.2V65.19Z" transform="translate(-74.131 -65.029)" fill="#fff"/>
        <path id="Path_59" data-name="Path 59" d="M140.776,70.073c0,3.4-2.06,5.208-4.574,5.208-2.6,0-4.428-2.024-4.428-5.017,0-3.138,1.944-5.191,4.574-5.191C139.037,65.072,140.776,67.14,140.776,70.073Zm-7.642.162c0,2.112,1.139,4,3.142,4s3.157-1.862,3.157-4.106c0-1.966-1.023-4.019-3.142-4.019S133.133,68.064,133.133,70.235Z" transform="translate(-73.214 -65.072)" fill="#fff"/>
        <path id="Path_60" data-name="Path 60" d="M140.058,75.075V65.19h1.388l3.157,5A28.009,28.009,0,0,1,146.37,73.4l.03-.015c-.118-1.319-.146-2.523-.146-4.061V65.19h1.2v9.885h-1.285l-3.128-5.016a31.483,31.483,0,0,1-1.841-3.3l-.045.015c.073,1.247.1,2.434.1,4.078v4.223Z" transform="translate(-70.261 -65.029)" fill="#fff"/>
        <path id="Path_61" data-name="Path 61" d="M150.29,65.19h5.3v1.071h-4.033v3.285h3.726V70.6h-3.726v4.472H150.29Z" transform="translate(-66.613 -65.029)" fill="#fff"/>
        <path id="Path_62" data-name="Path 62" d="M155.967,65.341a13.18,13.18,0,0,1,2.44-.2,4.016,4.016,0,0,1,2.849.806,2.468,2.468,0,0,1,.775,1.877,2.594,2.594,0,0,1-1.856,2.523v.044a2.466,2.466,0,0,1,1.447,1.995,15.746,15.746,0,0,0,.76,2.713h-1.314a12.66,12.66,0,0,1-.658-2.361c-.293-1.364-.819-1.877-1.974-1.921h-1.2v4.282h-1.271Zm1.271,4.5h1.3c1.359,0,2.221-.749,2.221-1.877,0-1.277-.921-1.834-2.264-1.849a5.226,5.226,0,0,0-1.257.117Z" transform="translate(-64.59 -65.049)" fill="#fff"/>
        <path id="Path_63" data-name="Path 63" d="M163.982,71.966l-1.024,3.11h-1.314l3.346-9.885h1.534l3.361,9.885h-1.359l-1.053-3.11Zm3.228-1-.964-2.845c-.218-.645-.365-1.232-.511-1.8h-.029c-.146.587-.307,1.189-.5,1.789l-.963,2.86Z" transform="translate(-62.566 -65.029)" fill="#fff"/>
        <path id="Path_64" data-name="Path 64" d="M169.215,75.075V65.19H170.6l3.155,5a28.032,28.032,0,0,1,1.769,3.212l.03-.015c-.118-1.319-.147-2.523-.147-4.061V65.19h1.2v9.885h-1.286L172.2,70.06a31.478,31.478,0,0,1-1.841-3.3l-.045.015c.073,1.247.1,2.434.1,4.078v4.223Z" transform="translate(-59.867 -65.029)" fill="#fff"/>
        <path id="Path_65" data-name="Path 65" d="M183.77,74.8a6.2,6.2,0,0,1-2.587.47l-.336.587a1.159,1.159,0,0,1,1.023,1.1c0,.85-.745,1.187-1.5,1.187a2.209,2.209,0,0,1-1.038-.249l.2-.66a1.713,1.713,0,0,0,.818.192c.336,0,.613-.133.613-.441,0-.4-.453-.557-1.139-.63l.614-1.13c-2.412-.293-4.136-2.008-4.136-4.957a4.909,4.909,0,0,1,5.144-5.191,5.261,5.261,0,0,1,2.337.44l-.307,1.042a4.6,4.6,0,0,0-1.987-.411c-2.309,0-3.843,1.481-3.843,4.078,0,2.419,1.388,3.974,3.785,3.974a5.078,5.078,0,0,0,2.075-.41Z" transform="translate(-57.34 -65.072)" fill="#fff"/>
        <path id="Path_66" data-name="Path 66" d="M185.189,71.966l-1.023,3.11h-1.314L186.2,65.19h1.534l3.361,9.885h-1.359l-1.053-3.11Zm3.23-1-.964-2.845c-.22-.645-.365-1.232-.511-1.8h-.03c-.146.587-.307,1.189-.5,1.789l-.964,2.86Z" transform="translate(-55.006 -65.029)" fill="#fff"/>
        <path id="Path_67" data-name="Path 67" d="M191.7,65.19v9.885h-1.271V65.19Z" transform="translate(-52.307 -65.029)" fill="#fff"/>
        <path id="Path_68" data-name="Path 68" d="M193.385,73.563a4.485,4.485,0,0,0,2.279.645c1.3,0,2.062-.689,2.062-1.687,0-.923-.528-1.451-1.857-1.965-1.607-.572-2.6-1.408-2.6-2.8,0-1.54,1.271-2.683,3.185-2.683a4.465,4.465,0,0,1,2.177.483l-.35,1.041a3.919,3.919,0,0,0-1.871-.468c-1.344,0-1.856.806-1.856,1.481,0,.923.6,1.378,1.957,1.906,1.666.645,2.514,1.451,2.514,2.9,0,1.525-1.126,2.845-3.448,2.845a5.082,5.082,0,0,1-2.514-.63Z" transform="translate(-51.366 -65.072)" fill="#fff"/>
        <path id="Path_69" data-name="Path 69" d="M204.27,70.441h-3.829v3.564h4.267v1.07H199.17V65.19h5.32v1.071h-4.049v3.123h3.829Z" transform="translate(-49.189 -65.029)" fill="#fff"/>
      </g>
      <g id="Group_34" data-name="Group 34" transform="translate(0 17.687)">
        <path id="Path_70" data-name="Path 70" d="M88.6,78.267a18.2,18.2,0,0,1,2.7-.2A5.633,5.633,0,0,1,95.3,79.294a4.564,4.564,0,0,1,1.388,3.549,5.234,5.234,0,0,1-1.418,3.842,6.052,6.052,0,0,1-4.354,1.423,20.4,20.4,0,0,1-2.309-.117Zm1.271,8.742a8.014,8.014,0,0,0,1.286.074c2.718,0,4.194-1.526,4.194-4.2.015-2.331-1.3-3.812-3.989-3.812a7.3,7.3,0,0,0-1.491.131Z" transform="translate(-88.603 -78.063)" fill="#fff"/>
        <path id="Path_71" data-name="Path 71" d="M101.307,83.367H97.479V86.93h4.266V88H96.208V78.116h5.319v1.07H97.479v3.124h3.828Z" transform="translate(-85.892 -78.044)" fill="#fff"/>
        <path id="Path_72" data-name="Path 72" d="M104.652,78.116h1.271V86.93h4.208V88h-5.479Z" transform="translate(-82.882 -78.044)" fill="#fff"/>
      </g>
      <g id="Group_35" data-name="Group 35" transform="translate(28.213 17.598)">
        <path id="Path_73" data-name="Path 73" d="M110.673,78l-.248,3.519h-.789L109.4,78Z" transform="translate(-109.402 -77.998)" fill="#fff"/>
      </g>
      <g id="Group_36" data-name="Group 36" transform="translate(31.821 17.598)">
        <path id="Path_74" data-name="Path 74" d="M121.065,83c0,3.4-2.06,5.208-4.574,5.208-2.6,0-4.429-2.024-4.429-5.017,0-3.138,1.945-5.191,4.575-5.191C119.326,78,121.065,80.066,121.065,83Zm-7.644.162c0,2.112,1.141,4,3.143,4s3.157-1.862,3.157-4.106c0-1.965-1.023-4.018-3.142-4.018S113.421,80.989,113.421,83.161Z" transform="translate(-112.062 -77.998)" fill="#fff"/>
        <path id="Path_75" data-name="Path 75" d="M120.346,78.267a13.2,13.2,0,0,1,2.44-.2,4.022,4.022,0,0,1,2.85.806,2.468,2.468,0,0,1,.775,1.877,2.6,2.6,0,0,1-1.856,2.523v.044A2.462,2.462,0,0,1,126,85.307a15.783,15.783,0,0,0,.76,2.713h-1.314a12.842,12.842,0,0,1-.658-2.361c-.293-1.364-.818-1.877-1.972-1.922h-1.2v4.283h-1.271Zm1.271,4.5h1.3c1.359,0,2.221-.749,2.221-1.877,0-1.277-.92-1.834-2.264-1.849a5.227,5.227,0,0,0-1.257.117Z" transform="translate(-109.109 -77.975)" fill="#fff"/>
        <path id="Path_76" data-name="Path 76" d="M126.572,78.267a18.176,18.176,0,0,1,2.7-.2,5.628,5.628,0,0,1,3.989,1.231,4.56,4.56,0,0,1,1.389,3.549,5.234,5.234,0,0,1-1.418,3.842,6.052,6.052,0,0,1-4.354,1.423,20.4,20.4,0,0,1-2.309-.117Zm1.271,8.742a8.014,8.014,0,0,0,1.286.074c2.717,0,4.194-1.526,4.194-4.2.015-2.331-1.3-3.812-3.989-3.812a7.3,7.3,0,0,0-1.491.131Z" transform="translate(-106.89 -77.975)" fill="#fff"/>
        <path id="Path_77" data-name="Path 77" d="M134.166,78.267a13.185,13.185,0,0,1,2.439-.2,4.02,4.02,0,0,1,2.85.806,2.463,2.463,0,0,1,.775,1.877,2.594,2.594,0,0,1-1.856,2.523v.044a2.462,2.462,0,0,1,1.446,1.995,15.745,15.745,0,0,0,.761,2.713h-1.316a12.962,12.962,0,0,1-.658-2.361c-.292-1.364-.818-1.877-1.972-1.922h-1.2v4.283h-1.271Zm1.271,4.5h1.3c1.358,0,2.221-.749,2.221-1.877,0-1.277-.921-1.834-2.265-1.849a5.213,5.213,0,0,0-1.256.117Z" transform="translate(-104.183 -77.975)" fill="#fff"/>
        <path id="Path_78" data-name="Path 78" d="M145.491,83.367h-3.829V86.93h4.267V88h-5.538V78.116h5.319v1.07h-4.048v3.124h3.829Z" transform="translate(-101.964 -77.955)" fill="#fff"/>
        <path id="Path_79" data-name="Path 79" d="M148.825,78.267a18.2,18.2,0,0,1,2.7-.2,5.628,5.628,0,0,1,3.989,1.231,4.565,4.565,0,0,1,1.388,3.549,5.234,5.234,0,0,1-1.418,3.842,6.05,6.05,0,0,1-4.354,1.423,20.4,20.4,0,0,1-2.309-.117Zm1.271,8.742a8.024,8.024,0,0,0,1.286.074c2.718,0,4.194-1.526,4.194-4.2.015-2.331-1.3-3.812-3.989-3.812a7.3,7.3,0,0,0-1.491.131Z" transform="translate(-98.957 -77.975)" fill="#fff"/>
        <path id="Path_80" data-name="Path 80" d="M161.529,83.367H157.7V86.93h4.266V88H156.43V78.116h5.319v1.07H157.7v3.124h3.828Z" transform="translate(-96.246 -77.955)" fill="#fff"/>
        <path id="Path_81" data-name="Path 81" d="M173.232,83.66c-.073-1.378-.16-3.036-.145-4.268h-.045c-.336,1.159-.746,2.392-1.243,3.755l-1.738,4.8H169.1L167.5,83.235c-.467-1.393-.861-2.67-1.139-3.843h-.03c-.028,1.232-.1,2.89-.19,4.372L165.882,88h-1.213l.688-9.885h1.621l1.681,4.781c.41,1.217.746,2.3.994,3.329h.043c.248-1,.6-2.082,1.038-3.329l1.754-4.781h1.621L174.723,88h-1.243Z" transform="translate(-93.309 -77.955)" fill="#fff"/>
        <path id="Path_82" data-name="Path 82" d="M175.742,84.892,174.719,88H173.4l3.346-9.885h1.533L181.646,88h-1.358l-1.053-3.11Zm3.23-1-.964-2.844c-.22-.645-.365-1.232-.511-1.8h-.03c-.145.585-.307,1.187-.5,1.789l-.964,2.859Z" transform="translate(-90.195 -77.955)" fill="#fff"/>
        <path id="Path_83" data-name="Path 83" d="M180.977,78.116h1.271V86.93h4.209V88h-5.48Z" transform="translate(-87.496 -77.955)" fill="#fff"/>
        <path id="Path_84" data-name="Path 84" d="M188.335,79.2h-3V78.116h7.292V79.2h-3.01V88h-1.286Z" transform="translate(-85.941 -77.955)" fill="#fff"/>
        <path id="Path_85" data-name="Path 85" d="M197.053,83.367h-3.829V86.93h4.267V88h-5.538V78.116h5.319v1.07h-4.048v3.124h3.829Z" transform="translate(-83.583 -77.955)" fill="#fff"/>
      </g>
    </g>
  </g>
</svg>
