<svg xmlns="http://www.w3.org/2000/svg" width="34" height="34" viewBox="0 0 34 34">
  <g id="Artwork_1" data-name="Artwork 1" transform="translate(17 17)">
    <path id="Artwork_1-2" data-name="Artwork 1" d="M17,0A17,17,0,1,0,34,17,17,17,0,0,0,17,0Zm6.8,14.4v.5A9.9,9.9,0,0,1,8.5,23.2h.8a7,7,0,0,0,4.3-1.5,3.5,3.5,0,0,1-3.3-2.4H12a3.5,3.5,0,0,1-2.8-3.4h0a3.5,3.5,0,0,0,1.6.4,3.5,3.5,0,0,1-1.1-4.7,9.9,9.9,0,0,0,7.2,3.7,3.5,3.5,0,0,1,6-3.2,7,7,0,0,0,2.2-.8,3.5,3.5,0,0,1-1.5,1.9,7,7,0,0,0,2-.6,7.1,7.1,0,0,1-1.8,1.8Z" transform="translate(-17 -17)" fill="#78ccdc"/>
  </g>
</svg>
