<svg xmlns="http://www.w3.org/2000/svg" width="16.368" height="17.536"><g data-name="Group 84" fill="#e2001a"><path data-name="Path 214" d="M15.204 9.355a1.168 1.168 0 00-1.169 1.169v4.677H2.338v-4.677a1.168 1.168 0 00-1.169-1.169A1.168 1.168 0 00.004 10.52v5.846a1.168 1.168 0 001.165 1.169h14.029a1.168 1.168 0 001.169-1.169V10.52a1.168 1.168 0 00-1.163-1.165z"/><path data-name="Path 215" d="M7.356 12.516a1.166 1.166 0 00.382.254 1.17 1.17 0 00.893 0 1.17 1.17 0 00.382-.254l4.675-4.675a1.169 1.169 0 000-1.653 1.169 1.169 0 00-1.653 0L9.354 8.869v-7.7A1.168 1.168 0 008.184 0a1.168 1.168 0 00-1.169 1.169v7.7L4.334 6.188a1.165 1.165 0 00-.827-.342 1.165 1.165 0 00-.827.342 1.169 1.169 0 000 1.653z"/></g></svg>