<svg xmlns="http://www.w3.org/2000/svg" width="16.814" height="16.814"><g data-name="Group 100" fill="#fff"><path data-name="Path 225" d="M8.407 0A8.407 8.407 0 000 8.407a8.407 8.407 0 008.407 8.407 8.407 8.407 0 008.407-8.407A8.407 8.407 0 008.407 0zm0 14.712A6.312 6.312 0 012.1 8.407 6.312 6.312 0 018.407 2.1a6.312 6.312 0 016.305 6.305 6.312 6.312 0 01-6.305 6.307z"/><path data-name="Path 226" d="M7.356 8.404h2.1v-4.2h-2.1z"/><path data-name="Path 227" d="M9.458 11.56a1.051 1.051 0 01-1.052 1.049 1.051 1.051 0 01-1.051-1.051 1.051 1.051 0 011.051-1.049 1.051 1.051 0 011.051 1.051"/></g></svg>