<svg xmlns="http://www.w3.org/2000/svg" width="41.002" height="41.001"><g data-name="Group 65" opacity=".3"><path data-name="Path 136" d="M6.086 21.14h7.043a2.57 2.57 0 002.563-2.563v-5.125a2.57 2.57 0 00-2.563-2.562H6.086a2.57 2.57 0 00-2.563 2.563v5.125a2.57 2.57 0 002.563 2.562z" fill="#e2001a"/><path data-name="Path 137" d="M18.258 12.172h13.453a.64.64 0 00.638-.644.64.64 0 00-.641-.641h-13.45a.64.64 0 00-.641.641.64.64 0 00.641.644z" fill="#354253"/><path data-name="Path 138" d="M18.258 14.734h13.453a.64.64 0 00.641-.641.64.64 0 00-.641-.641H18.258a.64.64 0 00-.641.641.64.64 0 00.641.641z" fill="#354253"/><path data-name="Path 139" d="M18.258 17.297h13.453a.64.64 0 00.638-.644.64.64 0 00-.641-.641h-13.45a.64.64 0 00-.641.641.64.64 0 00.641.644z" fill="#354253"/><path data-name="Path 140" d="M24.384 19.859a.64.64 0 00.641-.641.64.64 0 00-.641-.641h-6.126a.64.64 0 00-.641.641.64.64 0 00.641.641z" fill="#354253"/><path data-name="Path 141" d="M17.297 22.422H3.844a.64.64 0 00-.641.641.64.64 0 00.641.641h13.453a.64.64 0 00.641-.641.64.64 0 00-.641-.641z" fill="#354253"/><path data-name="Path 142" d="M17.297 24.985H3.844a.64.64 0 00-.641.641.64.64 0 00.641.641h13.453a.64.64 0 00.641-.641.64.64 0 00-.641-.641z" fill="#354253"/><path data-name="Path 143" d="M17.297 27.547H3.844a.64.64 0 00-.641.641.64.64 0 00.641.641h13.453a.64.64 0 00.641-.641.64.64 0 00-.641-.641z" fill="#354253"/><path data-name="Path 144" d="M26.162 24.023c-1.012 0-1.453.886-1 2.329l3.54 10.29c.312.988.8 1.489 1.316 1.489.466 0 .961-.4 1.387-1.211l.8-1.811 4.541 4.874A3.038 3.038 0 0038.924 41a2.044 2.044 0 001.448-.564 2.7 2.7 0 00-.266-3.722l-4.614-4.95 1.717-.77c1.646-.884 1.589-2.183-.13-2.9l-9.875-3.823a2.758 2.758 0 00-1.046-.243z" fill="#e2001a"/><path data-name="Path 145" d="M2.562 34.594h24.082l-.44-1.281H2.562a1.283 1.283 0 01-1.281-1.281V5.765h33.313v19.988l1.281.5V2.562a2.57 2.57 0 00-2.562-2.563H2.562A2.57 2.57 0 000 2.562v29.469a2.57 2.57 0 002.562 2.568zM31.391 1.921a.962.962 0 01.961.961.962.962 0 01-.961.961.962.962 0 01-.961-.961.962.962 0 01.961-.961zm-3.524 0a.962.962 0 01.961.961.962.962 0 01-.961.961.962.962 0 01-.961-.961.962.962 0 01.961-.961z" fill="#354253"/></g></svg>