<svg xmlns="http://www.w3.org/2000/svg" width="39.509" height="44.5"><g data-name="Group 63" opacity=".3" fill="#354253"><path data-name="Path 131" d="M26.34 6.308h-2.634l-2.372-2.356-1.026-1.026a1.26 1.26 0 00-.185-.185.7.7 0 00-.736 0 1.26 1.26 0 00-.185.185l-1.026 1.029-2.372 2.356H13.17l2.356-2.356 3.673-3.66a1.26 1.26 0 01.185-.185.7.7 0 01.736 0 1.26 1.26 0 01.185.185l3.673 3.66z"/><path data-name="Path 132" d="M19.957 20.995a.332.332 0 00-.4 0l.2-.2z"/><path data-name="Path 133" d="M34.874 9.997v8.849l-8.3 8.3a.327.327 0 01-.237.1.327.327 0 01-.237-.1l-6.348-6.348-6.348 6.348a.327.327 0 01-.237.1.327.327 0 01-.237-.1l-8.35-8.35v-8.8A1.316 1.316 0 015.9 8.678h27.657a1.316 1.316 0 011.317 1.317z"/><path data-name="Path 134" d="M39.4 19.385a1.26 1.26 0 00-.185-.185l-.8-.815-1.54-1.541v2.634L26.617 29.735a.118.118 0 01-.08.08l-.2.2-6.387-6.391a.332.332 0 00-.4 0l-6.15 6.15a.327.327 0 01-.237.1.327.327 0 01-.237-.1l-10.3-10.3v-2.63L.283 19.2a1.26 1.26 0 00-.185.185.653.653 0 00-.105.37v22.769a1.633 1.633 0 00.093.566 1.936 1.936 0 001.317 1.317 1.633 1.633 0 00.566.093h35.565a1.633 1.633 0 00.566-.093 1.936 1.936 0 001.317-1.317 1.632 1.632 0 00.093-.566V19.755a.653.653 0 00-.105-.37zM2.963 40.076a.33.33 0 01-.329-.329V22.901a.33.33 0 01.329-.329.332.332 0 01.237.105l8.416 8.416a.354.354 0 010 .473L3.2 39.983a.383.383 0 01-.237.093zm31.806 1.79H4.754a.33.33 0 01-.329-.329.383.383 0 01.093-.237l15.04-15.04a.332.332 0 01.4 0L35 41.303a.332.332 0 01.105.237.333.333 0 01-.1.234.325.325 0 01-.231.1zm2.107-2.12a.325.325 0 01-.1.231.333.333 0 01-.234.1.383.383 0 01-.237-.093l-8.425-8.43a.354.354 0 010-.473l8.42-8.417a.332.332 0 01.237-.105.327.327 0 01.231.1.327.327 0 01.1.231z"/><path data-name="Path 135" d="M19.957 20.995a.332.332 0 00-.4 0l.2-.2z"/></g></svg>