<svg xmlns="http://www.w3.org/2000/svg" width="210.139" height="56.096"><g data-name="Component 1 – 18"><path data-name="Path 20" d="M24.465 54.814C38.28 51.662 47.666 35.881 47.68 26.916c.013-10.88.008-25.665.008-25.665H1.251v25.7c0 9.045 9.434 24.685 23.214 27.859" fill="#fff"/><path data-name="Path 21" d="M24.465 54.814C38.28 51.662 47.666 35.881 47.68 26.916c.013-10.88.008-25.665.008-25.665H1.251v25.7C1.253 36 10.68 51.64 24.465 54.814z" fill="none" stroke="#e2001a" stroke-width="2.501"/><path data-name="Path 22" d="M24.471 51.912c12.315-2.81 20.688-16.879 20.7-24.877.014-9.7.007-22.884.007-22.884H3.771v22.92c0 8.065 8.411 22.01 20.7 24.842" fill="#e2001a"/><path data-name="Path 23" d="M24.453 26.083l-6.606 16.13 6.568-5.444 6.55 5.444z" fill="#fff"/><path data-name="Path 24" d="M24.453 26.122L31.06 9.991l-6.567 5.445-6.553-5.445z" fill="#fff"/><path data-name="Path 25" d="M24.467 26.095l16.1 6.621-5.439-6.582 5.433-6.564z" fill="#fff"/><path data-name="Path 26" d="M24.452 26.111l-16.1-6.62 5.434 6.581-5.434 6.564z" fill="#fff"/><g data-name="Group 33"><g data-name="Group 33" fill="#fff"><path data-name="Path 52" d="M54.616.387h5.3v1.071H55.89v3.285h3.726v1.054H55.89v4.472h-1.274z"/><path data-name="Path 53" d="M70.737 5.227c0 3.4-2.06 5.208-4.574 5.208-2.6 0-4.428-2.024-4.428-5.017 0-3.138 1.944-5.191 4.574-5.191 2.689-.001 4.428 2.067 4.428 5zm-7.642.162c0 2.112 1.139 4 3.142 4s3.157-1.862 3.157-4.106c0-1.966-1.023-4.019-3.142-4.019s-3.158 1.954-3.158 4.125z"/><path data-name="Path 54" d="M72.971 10.272V.387h1.388l3.157 5a28.034 28.034 0 011.769 3.212l.028-.015c-.117-1.319-.146-2.523-.146-4.061V.387h1.2v9.885h-1.288l-3.128-5.016a31.478 31.478 0 01-1.841-3.3l-.045.015c.075 1.247.1 2.434.1 4.078v4.223z"/><path data-name="Path 55" d="M83.169.518a18.2 18.2 0 012.7-.2 5.622 5.622 0 013.989 1.232 4.559 4.559 0 011.388 3.548 5.239 5.239 0 01-1.418 3.843 6.052 6.052 0 01-4.353 1.423 20.756 20.756 0 01-2.31-.117zM84.44 9.26a8.031 8.031 0 001.287.074c2.717 0 4.193-1.525 4.193-4.195.015-2.332-1.3-3.813-3.988-3.813a7.2 7.2 0 00-1.492.132z"/><path data-name="Path 56" d="M95.063 7.163l-1.023 3.11h-1.316L96.07.388h1.534l3.361 9.885h-1.359l-1.053-3.11zm3.228-1l-.964-2.845c-.218-.645-.365-1.232-.511-1.8h-.028a27.543 27.543 0 01-.5 1.789l-.964 2.86z"/><path data-name="Path 57" d="M103.712 1.472h-3V.387h7.292v1.085h-3.01v8.8h-1.286z"/><path data-name="Path 58" d="M110.959.387v9.885h-1.271V.387z"/><path data-name="Path 59" d="M122.181 5.227c0 3.4-2.06 5.208-4.574 5.208-2.6 0-4.428-2.024-4.428-5.017 0-3.138 1.944-5.191 4.574-5.191 2.689-.001 4.428 2.067 4.428 5zm-7.642.162c0 2.112 1.139 4 3.142 4s3.157-1.862 3.157-4.106c0-1.966-1.023-4.019-3.142-4.019s-3.158 1.954-3.158 4.125z"/><path data-name="Path 60" d="M124.416 10.272V.387h1.388l3.157 5a28.009 28.009 0 011.767 3.21l.03-.015c-.118-1.319-.146-2.523-.146-4.061V.387h1.2v9.885h-1.285l-3.128-5.016a31.483 31.483 0 01-1.841-3.3l-.045.015c.073 1.247.1 2.434.1 4.078v4.223z"/><path data-name="Path 61" d="M138.296.387h5.3v1.071h-4.033v3.285h3.726v1.054h-3.726v4.472h-1.267z"/><path data-name="Path 62" d="M145.996.518a13.18 13.18 0 012.44-.2 4.016 4.016 0 012.849.806 2.468 2.468 0 01.775 1.877 2.594 2.594 0 01-1.856 2.523v.044a2.466 2.466 0 011.447 1.995 15.746 15.746 0 00.76 2.713h-1.314a12.66 12.66 0 01-.658-2.361c-.293-1.364-.819-1.877-1.974-1.921h-1.2v4.282h-1.271zm1.271 4.5h1.3c1.359 0 2.221-.749 2.221-1.877 0-1.277-.921-1.834-2.264-1.849a5.226 5.226 0 00-1.257.117z"/><path data-name="Path 63" d="M156.035 7.163l-1.024 3.11h-1.314l3.346-9.885h1.534l3.361 9.885h-1.359l-1.053-3.11zm3.228-1l-.964-2.845c-.218-.645-.365-1.232-.511-1.8h-.029a27.543 27.543 0 01-.5 1.789l-.963 2.86z"/><path data-name="Path 64" d="M163.967 10.272V.387h1.385l3.155 5a28.032 28.032 0 011.769 3.212l.03-.015c-.118-1.319-.147-2.523-.147-4.061V.387h1.2v9.885h-1.286l-3.121-5.015a31.478 31.478 0 01-1.841-3.3l-.045.015c.073 1.247.1 2.434.1 4.078v4.223z"/><path data-name="Path 65" d="M181.049 9.954a6.2 6.2 0 01-2.587.47l-.336.587a1.159 1.159 0 011.023 1.1c0 .85-.745 1.187-1.5 1.187a2.209 2.209 0 01-1.038-.249l.2-.66a1.713 1.713 0 00.818.192c.336 0 .613-.133.613-.441 0-.4-.453-.557-1.139-.63l.614-1.13c-2.412-.293-4.136-2.008-4.136-4.957a4.909 4.909 0 015.144-5.191 5.261 5.261 0 012.337.44l-.307 1.042a4.6 4.6 0 00-1.987-.411c-2.309 0-3.843 1.481-3.843 4.078 0 2.419 1.388 3.974 3.785 3.974a5.078 5.078 0 002.075-.41z"/><path data-name="Path 66" d="M184.802 7.163l-1.023 3.11h-1.314l3.348-9.886h1.534l3.361 9.885h-1.359l-1.053-3.11zm3.23-1l-.964-2.845c-.22-.645-.365-1.232-.511-1.8h-.03a27.543 27.543 0 01-.5 1.789l-.964 2.86z"/><path data-name="Path 67" d="M194.012.387v9.885h-1.271V.387z"/><path data-name="Path 68" d="M196.638 8.717a4.485 4.485 0 002.279.645c1.3 0 2.062-.689 2.062-1.687 0-.923-.528-1.451-1.857-1.965-1.607-.572-2.6-1.408-2.6-2.8 0-1.54 1.271-2.683 3.185-2.683a4.465 4.465 0 012.177.483l-.35 1.041a3.919 3.919 0 00-1.871-.468c-1.344 0-1.856.806-1.856 1.481 0 .923.6 1.378 1.957 1.906 1.666.645 2.514 1.451 2.514 2.9 0 1.525-1.126 2.845-3.448 2.845a5.082 5.082 0 01-2.514-.63z"/><path data-name="Path 69" d="M209.7 5.638h-3.829v3.564h4.267v1.07H204.6V.387h5.32v1.071h-4.049v3.123h3.829z"/></g><g data-name="Group 34" fill="#fff"><path data-name="Path 70" d="M54.616 18.117a18.2 18.2 0 012.7-.2 5.633 5.633 0 014 1.227 4.564 4.564 0 011.388 3.549 5.234 5.234 0 01-1.418 3.842 6.052 6.052 0 01-4.354 1.423 20.4 20.4 0 01-2.309-.117zm1.271 8.742a8.014 8.014 0 001.286.074c2.718 0 4.194-1.526 4.194-4.2.015-2.331-1.3-3.812-3.989-3.812a7.3 7.3 0 00-1.491.131z"/><path data-name="Path 71" d="M70.034 23.236h-3.828v3.563h4.266v1.07h-5.537v-9.884h5.319v1.07h-4.048v3.124h3.828z"/><path data-name="Path 72" d="M76.389 17.985h1.271v8.814h4.208v1.07h-5.479z"/></g><g data-name="Group 35"><path data-name="Path 73" d="M84.103 17.826l-.248 3.519h-.789l-.236-3.519z" fill="#fff"/></g><g data-name="Group 36" fill="#fff"><path data-name="Path 74" d="M95.443 22.826c0 3.4-2.06 5.208-4.574 5.208-2.6 0-4.429-2.024-4.429-5.017 0-3.138 1.945-5.191 4.575-5.191 2.689 0 4.428 2.066 4.428 5zm-7.644.162c0 2.112 1.141 4 3.143 4s3.157-1.862 3.157-4.106c0-1.965-1.023-4.018-3.142-4.018s-3.158 1.951-3.158 4.123z"/><path data-name="Path 75" d="M97.677 18.116a13.2 13.2 0 012.44-.2 4.022 4.022 0 012.85.806 2.468 2.468 0 01.775 1.877 2.6 2.6 0 01-1.856 2.523v.044a2.462 2.462 0 011.445 1.99 15.783 15.783 0 00.76 2.713h-1.314a12.842 12.842 0 01-.658-2.361c-.293-1.364-.818-1.877-1.972-1.922h-1.2v4.283h-1.271zm1.271 4.5h1.3c1.359 0 2.221-.749 2.221-1.877 0-1.277-.92-1.834-2.264-1.849a5.227 5.227 0 00-1.257.117z"/><path data-name="Path 76" d="M106.122 18.116a18.176 18.176 0 012.7-.2 5.628 5.628 0 013.989 1.231 4.56 4.56 0 011.389 3.549 5.234 5.234 0 01-1.418 3.842 6.052 6.052 0 01-4.354 1.423 20.4 20.4 0 01-2.309-.117zm1.271 8.742a8.014 8.014 0 001.286.074c2.717 0 4.194-1.526 4.194-4.2.015-2.331-1.3-3.812-3.989-3.812a7.3 7.3 0 00-1.491.131z"/><path data-name="Path 77" d="M116.423 18.116a13.185 13.185 0 012.439-.2 4.02 4.02 0 012.85.806 2.463 2.463 0 01.775 1.877 2.594 2.594 0 01-1.856 2.523v.044a2.462 2.462 0 011.446 1.995 15.745 15.745 0 00.761 2.713h-1.316a12.962 12.962 0 01-.658-2.361c-.292-1.364-.818-1.877-1.972-1.922h-1.2v4.283h-1.271zm1.271 4.5h1.3c1.358 0 2.221-.749 2.221-1.877 0-1.277-.921-1.834-2.265-1.849a5.213 5.213 0 00-1.256.117z"/><path data-name="Path 78" d="M129.967 23.236h-3.829v3.563h4.267v1.07h-5.538v-9.884h5.319v1.07h-4.048v3.124h3.829z"/><path data-name="Path 79" d="M136.308 18.116a18.2 18.2 0 012.7-.2 5.628 5.628 0 013.989 1.231 4.565 4.565 0 011.388 3.549 5.234 5.234 0 01-1.418 3.842 6.05 6.05 0 01-4.354 1.423 20.4 20.4 0 01-2.309-.117zm1.271 8.742a8.024 8.024 0 001.286.074c2.718 0 4.194-1.526 4.194-4.2.015-2.331-1.3-3.812-3.989-3.812a7.3 7.3 0 00-1.491.131z"/><path data-name="Path 80" d="M151.723 23.236h-3.829v3.563h4.266v1.07h-5.536v-9.884h5.319v1.07h-4.049v3.124h3.828z"/><path data-name="Path 81" d="M166.363 23.529c-.073-1.378-.16-3.036-.145-4.268h-.045a58.661 58.661 0 01-1.243 3.755l-1.738 4.8h-.961l-1.6-4.712c-.467-1.393-.861-2.67-1.139-3.843h-.03c-.028 1.232-.1 2.89-.19 4.372l-.259 4.236H157.8l.688-9.885h1.621l1.681 4.781c.41 1.217.746 2.3.994 3.329h.043c.248-1 .6-2.082 1.038-3.329l1.754-4.781h1.621l.614 9.885h-1.243z"/><path data-name="Path 82" d="M171.987 24.761l-1.023 3.108h-1.319l3.346-9.885h1.533l3.367 9.885h-1.358l-1.053-3.11zm3.23-1l-.964-2.844c-.22-.645-.365-1.232-.511-1.8h-.03a27.617 27.617 0 01-.5 1.789l-.964 2.859z"/><path data-name="Path 83" d="M179.921 17.985h1.271v8.814h4.209v1.07h-5.48z"/><path data-name="Path 84" d="M188.834 19.069h-3v-1.084h7.292v1.084h-3.01v8.8h-1.286z"/><path data-name="Path 85" d="M199.91 23.236h-3.829v3.563h4.267v1.07h-5.538v-9.884h5.319v1.07h-4.048v3.124h3.829z"/></g></g></g></svg>