<svg xmlns="http://www.w3.org/2000/svg" width="39.509" height="44.5" viewBox="0 0 39.509 44.5">
  <g id="Group_63" data-name="Group 63" transform="translate(-22 87.58)">
    <path id="Path_131" data-name="Path 131" d="M55.17-81.272H52.536l-2.372-2.356-1.026-1.026v0a1.26,1.26,0,0,0-.185-.185.7.7,0,0,0-.736,0,1.26,1.26,0,0,0-.185.185l-1.026,1.029-2.372,2.356H42l2.356-2.356,3.673-3.66,0,0a1.26,1.26,0,0,1,.185-.185.7.7,0,0,1,.736,0,1.26,1.26,0,0,1,.185.185l3.673,3.66Z" transform="translate(-6.83)" fill="#354253"/>
    <path id="Path_132" data-name="Path 132" d="M52.1-55.8a.332.332,0,0,0-.4,0l.2-.2Z" transform="translate(-10.143 -10.785)" fill="#354253"/>
    <path id="Path_133" data-name="Path 133" d="M59.251-73.081v8.849l-8.3,8.3a.327.327,0,0,1-.237.1.327.327,0,0,1-.237-.1l-6.348-6.348-6.348,6.348a.327.327,0,0,1-.237.1.327.327,0,0,1-.237-.1l-8.35-8.35v-8.8A1.316,1.316,0,0,1,30.277-74.4H57.934a1.316,1.316,0,0,1,1.317,1.317Z" transform="translate(-2.377 -4.502)" fill="#e2001a"/>
    <path id="Path_134" data-name="Path 134" d="M61.4-59.459a1.26,1.26,0,0,0-.185-.185l-.8-.815L58.875-62v2.634L48.617-49.109a.118.118,0,0,1-.08.08l-.2.2L41.95-55.22l0,0a.332.332,0,0,0-.4,0l-6.15,6.15a.327.327,0,0,1-.237.1.327.327,0,0,1-.237-.1l-10.3-10.3V-62l-2.343,2.356a1.26,1.26,0,0,0-.185.185.653.653,0,0,0-.105.37V-36.32a1.633,1.633,0,0,0,.093.566,1.936,1.936,0,0,0,1.317,1.317,1.633,1.633,0,0,0,.566.093H59.534a1.633,1.633,0,0,0,.566-.093,1.936,1.936,0,0,0,1.317-1.317,1.632,1.632,0,0,0,.093-.566V-59.089a.653.653,0,0,0-.105-.37ZM24.963-38.768a.33.33,0,0,1-.329-.329V-55.943a.33.33,0,0,1,.329-.329.332.332,0,0,1,.237.105l8.416,8.416a.354.354,0,0,1,0,.473L25.2-38.861a.383.383,0,0,1-.237.093Zm31.806,1.79H26.754a.33.33,0,0,1-.329-.329.383.383,0,0,1,.093-.237l15.04-15.04a.332.332,0,0,1,.4,0L57-37.541l0,0a.332.332,0,0,1,.105.237.333.333,0,0,1-.1.234.325.325,0,0,1-.231.1Zm2.107-2.12a.325.325,0,0,1-.1.231.333.333,0,0,1-.234.1.383.383,0,0,1-.237-.093L49.88-47.29a.354.354,0,0,1,0-.473L58.3-56.18a.332.332,0,0,1,.237-.105.327.327,0,0,1,.231.1.327.327,0,0,1,.1.231Z" transform="translate(0 -8.736)" fill="#354253"/>
    <path id="Path_135" data-name="Path 135" d="M52.1-55.8a.332.332,0,0,0-.4,0l.2-.2Z" transform="translate(-10.143 -10.785)" fill="#354253"/>
  </g>
</svg>
