<svg xmlns="http://www.w3.org/2000/svg" width="17.345" height="16.5" viewBox="0 0 17.345 16.5">
  <g id="Group_77" data-name="Group 77" transform="translate(-8.997 89.002)">
    <path id="Path_201" data-name="Path 201" d="M13.226-81.881a14.126,14.126,0,0,0,5.939,5.776l2.376-2.31a17.894,17.894,0,0,0,3.974.711.88.88,0,0,1,.829.776l-.027,3.6a.92.92,0,0,1-.83.823C15.249-72.485,9.332-78.24,9-88.214A.816.816,0,0,1,9.786-89h4.059a1.126,1.126,0,0,1,.954.622,13.7,13.7,0,0,0,.8,4.188Z" transform="translate(0)" fill="#354253"/>
  </g>
</svg>
