<svg xmlns="http://www.w3.org/2000/svg" width="34" height="34" viewBox="0 0 34 34">
  <g id="Artwork_3" data-name="Artwork 3" transform="translate(17 17)">
    <g id="Artwork_3-2" data-name="Artwork 3" transform="translate(-17 -17)">
      <path id="Path_89" data-name="Path 89" d="M14.7,20.3,20.3,17l-5.6-3.3Z" fill="#f74832"/>
      <path id="Path_90" data-name="Path 90" d="M17,0A17,17,0,1,0,34,17,17,17,0,0,0,17,0Zm8.5,20a2.9,2.9,0,0,1-2.9,3H11.4a2.9,2.9,0,0,1-2.9-3V14a2.9,2.9,0,0,1,2.9-3H22.6a2.9,2.9,0,0,1,2.9,3Z" fill="#f74832"/>
    </g>
  </g>
</svg>
